<svg width="60" height="70" viewBox="0 0 60 70" fill="none" xmlns="http://www.w3.org/2000/svg">
<path d="M56.9475 6.75024H44.1042L43.8971 3.63724C43.7607 1.58679 42.2101 0 40.3431 0H19.6569C17.7899 0 16.2393 1.58686 16.1029 3.63724L15.8958 6.75024H3.05251C1.36668 6.75024 0 8.25516 0 10.1115C0 11.9679 1.36668 13.4728 3.05251 13.4728H56.9475C58.6333 13.4728 60 11.9679 60 10.1115C60 8.25516 58.6333 6.75024 56.9475 6.75024ZM18.7218 3.84851C18.7575 3.31181 19.1683 2.8914 19.6569 2.8914H40.3431C40.8317 2.8914 41.2426 3.31181 41.2782 3.84851L41.4713 6.75024H18.5287L18.7218 3.84851Z" fill="#1C39BB"/>
<path d="M6.71901 63.9345C6.94653 67.3537 9.53209 69.9999 12.6456 69.9999H47.3545C50.468 69.9999 53.0536 67.3538 53.281 63.9345L56.4678 16.0388H3.53223L6.71901 63.9345ZM50.6623 63.7233C50.6009 64.6462 50.228 65.5015 49.6124 66.1315C48.9968 66.7615 48.1949 67.1085 47.3545 67.1085H12.6456C11.8051 67.1085 11.0033 66.7615 10.3876 66.1315C9.77204 65.5014 9.39918 64.6462 9.33777 63.7233L6.35741 18.9303H53.6426L50.6623 63.7233Z" fill="#1C39BB"/>
<path d="M29.9999 58.8816C30.725 58.8816 31.3128 58.2343 31.3128 57.4359V27.3913C31.3128 26.5928 30.725 25.9456 29.9999 25.9456C29.2748 25.9456 28.687 26.5928 28.687 27.3913V57.4358C28.6869 58.2343 29.2748 58.8816 29.9999 58.8816Z" fill="#1C39BB"/>
<path d="M17.7404 57.5277C17.7847 58.2934 18.3623 58.8817 19.0494 58.8817C19.0774 58.8817 19.1057 58.8807 19.134 58.8787C19.8577 58.828 20.407 58.1409 20.3609 57.3442L18.6247 27.2995C18.5786 26.5027 17.9543 25.898 17.2311 25.9485C16.5074 25.9992 15.9581 26.6863 16.0042 27.4831L17.7404 57.5277Z" fill="#1C39BB"/>
<path d="M40.8663 58.8785C40.8947 58.8805 40.9229 58.8815 40.951 58.8815C41.638 58.8815 42.2157 58.2931 42.2599 57.5275L43.9962 27.4829C44.0423 26.6861 43.493 25.999 42.7693 25.9483C42.0468 25.8975 41.4217 26.5024 41.3757 27.2993L39.6394 57.3439C39.5934 58.1407 40.1427 58.8278 40.8663 58.8785Z" fill="#1C39BB"/>
</svg>
