<svg width="36" height="36" viewBox="0 0 36 36" fill="none" xmlns="http://www.w3.org/2000/svg">
<g clip-path="url(#clip0_174_4291)">
<path d="M26.8787 18.8883H26.8516C27.2536 18.3569 27.5013 17.7028 27.5013 16.9865V16.3093C27.5013 15.3401 27.1234 14.4996 26.4373 13.9439C26.1691 13.7267 25.8675 13.567 25.5427 13.4627C25.7178 12.282 25.9183 9.80334 24.7492 8.69994C24.5371 8.49926 24.3161 8.36667 24.0892 8.27576C24.4849 3.89407 22.2995 0.337052 20.5171 0.0241967C19.8241 -0.099642 18.9878 0.230366 18.7096 1.51506C18.4122 2.88964 17.482 3.02771 15.7262 3.17008C14.7106 3.25309 13.5593 3.34657 12.5503 3.88995C11.8314 4.27673 11.3693 4.84739 11.1769 5.5851C10.897 6.65831 11.2865 7.83735 11.624 8.58107C11.0057 8.73716 10.473 8.99255 10.0702 9.39511C8.7941 10.6711 9.38277 12.7849 9.74313 13.7358C9.67367 13.7876 9.60437 13.8398 9.53885 13.8977C8.86151 14.4981 8.48828 15.3539 8.48828 16.3095V16.9867C8.48828 17.7031 8.73596 18.3571 9.13801 18.8885H9.12205C8.77215 18.8885 8.48828 19.172 8.48828 19.5223C8.48828 19.8725 8.77215 20.156 9.12205 20.156H10.476L12.7286 35.4585C12.7744 35.7698 13.0412 36 13.3556 36H23.2673C23.5817 36 23.8484 35.7698 23.8942 35.4585L26.1468 20.156H26.8781C27.2281 20.156 27.5119 19.8725 27.5119 19.5223C27.5124 19.1717 27.2286 18.8883 26.8787 18.8883ZM12.4034 5.90499C12.505 5.51632 12.7497 5.22182 13.1514 5.0057C13.9265 4.58787 14.8936 4.50932 15.8289 4.43385C17.521 4.29646 19.4384 4.14106 19.949 1.78367C20.0283 1.41661 20.1476 1.24646 20.2984 1.27253C21.269 1.44302 23.1844 4.26747 22.8284 8.16119C22.4313 8.21727 22.0217 8.33202 21.6033 8.45003C20.6879 8.70817 19.6489 8.99907 18.3779 8.84247L17.5505 8.73596C15.9534 8.52876 14.3291 8.32036 12.9425 8.39446C12.6341 7.81866 12.1883 6.73018 12.4034 5.90499ZM10.9666 10.2911C11.9698 9.28911 14.8481 9.66303 17.3868 9.99287L18.2204 10.0999C19.7497 10.2917 20.968 9.94638 21.9474 9.66972C23.0546 9.35652 23.5083 9.27179 23.8791 9.62084C24.5204 10.2268 24.4801 12.0556 24.2808 13.3411C24.154 13.3543 24.0261 13.3734 23.8964 13.401C23.8764 13.406 21.8668 13.9097 20.4493 13.9097C17.8122 13.9097 12.1326 13.1533 12.0681 13.1454C11.664 13.0959 11.2712 13.1195 10.8995 13.2044C10.6292 12.4628 10.239 11.0187 10.9666 10.2911ZM13.9032 34.7321L13.3518 30.9852L17.0987 34.7321H13.9032ZM18.8911 34.7323L13.3729 29.2141C13.2863 29.1275 13.1789 29.0822 13.0677 29.0563L12.5859 25.7832L21.5351 34.7323H18.8911ZM22.7982 34.203L12.2765 23.6813L11.8179 20.5661C11.828 20.5778 11.8318 20.5926 11.8429 20.6037L23.1374 31.8982L22.7982 34.203ZM23.3674 30.336L13.1873 20.1559H15.8313L23.5738 27.8984C23.6148 27.9394 23.6647 27.9632 23.7127 27.9906L23.3674 30.336ZM23.9367 26.4689L17.6235 20.1557H20.2675L24.0902 23.9781C24.1475 24.0353 24.2144 24.0763 24.2844 24.107L23.9367 26.4689ZM24.506 22.6016L22.0599 20.1559H24.3343H24.866L24.506 22.6016ZM26.2337 16.9865C26.2337 18.0348 25.3818 18.8883 24.3343 18.8883H11.6554C10.6079 18.8883 9.756 18.0348 9.756 16.9865V16.3093C9.756 15.722 9.9776 15.2027 10.3795 14.8462C10.7199 14.5449 11.1611 14.3857 11.6386 14.3857C11.7271 14.3857 11.8168 14.3914 11.9072 14.4025C12.1436 14.4341 17.7276 15.1775 20.4493 15.1775C22.0256 15.1775 24.1189 14.6526 24.1832 14.636C24.7446 14.5171 25.2604 14.6212 25.6394 14.9293C26.0228 15.2392 26.2337 15.7294 26.2337 16.3093V16.9865Z" fill="#1C39BB"/>
</g>
<defs>
<clipPath id="clip0_174_4291">
<rect width="36" height="36" fill="white"/>
</clipPath>
</defs>
</svg>
