<svg width="20" height="36" viewBox="0 0 20 36" fill="none" xmlns="http://www.w3.org/2000/svg">
<path d="M18.3904 18.8883H18.3633C18.7653 18.3569 19.013 17.7028 19.013 16.9865V16.3093C19.013 15.3401 18.6351 14.4996 17.9491 13.9439C17.6808 13.7267 17.3793 13.567 17.0544 13.4627C17.2295 12.282 17.43 9.80334 16.2609 8.69994C16.0488 8.49926 15.8278 8.36667 15.6009 8.27576C15.9966 3.89407 13.8113 0.337052 12.0288 0.0241967C11.3359 -0.099642 10.4995 0.230366 10.2213 1.51506C9.9239 2.88964 8.99374 3.02771 7.23787 3.17008C6.22229 3.25309 5.07104 3.34657 4.06198 3.88995C3.34313 4.27673 2.88105 4.84739 2.6886 5.5851C2.40868 6.65831 2.7982 7.83735 3.13576 8.58107C2.51742 8.73716 1.98468 8.99255 1.58194 9.39511C0.305823 10.6711 0.894486 12.7849 1.25485 13.7358C1.18539 13.7876 1.11609 13.8398 1.05057 13.8977C0.373231 14.4981 0 15.3539 0 16.3095V16.9867C0 17.7031 0.247678 18.3571 0.649724 18.8885H0.633773C0.283868 18.8885 0 19.172 0 19.5223C0 19.8725 0.283868 20.156 0.633773 20.156H1.98776L4.24036 35.4585C4.28616 35.7698 4.55287 36 4.86727 36H14.779C15.0934 36 15.3601 35.7698 15.4059 35.4585L17.6585 20.156H18.3899C18.7398 20.156 19.0236 19.8725 19.0236 19.5223C19.0242 19.1717 18.7403 18.8883 18.3904 18.8883ZM3.91515 5.90499C4.0167 5.51632 4.26146 5.22182 4.66316 5.0057C5.43827 4.58787 6.40531 4.50932 7.34061 4.43385C9.03268 4.29646 10.9501 4.14106 11.4607 1.78367C11.54 1.41661 11.6594 1.24646 11.8101 1.27253C12.7808 1.44302 14.6961 4.26747 14.3401 8.16119C13.943 8.21727 13.5334 8.33202 13.1151 8.45003C12.1997 8.70817 11.1606 8.99907 9.8896 8.84247L9.06218 8.73596C7.46514 8.52876 5.84083 8.32036 4.45425 8.39446C4.14585 7.81866 3.70007 6.73018 3.91515 5.90499ZM2.47832 10.2911C3.48155 9.28911 6.35985 9.66303 8.89854 9.99287L9.73214 10.0999C11.2614 10.2917 12.4797 9.94638 13.4591 9.66972C14.5663 9.35652 15.02 9.27179 15.3908 9.62084C16.0321 10.2268 15.9918 12.0556 15.7925 13.3411C15.6658 13.3543 15.5378 13.3734 15.4081 13.401C15.3881 13.406 13.3785 13.9097 11.9611 13.9097C9.32392 13.9097 3.64432 13.1533 3.57983 13.1454C3.17572 13.0959 2.78294 13.1195 2.41125 13.2044C2.14093 12.4628 1.75072 11.0187 2.47832 10.2911ZM5.41494 34.7321L4.8635 30.9852L8.61039 34.7321H5.41494ZM10.4028 34.7323L4.88459 29.2141C4.79798 29.1275 4.6906 29.0822 4.57946 29.0563L4.09765 25.7832L13.0468 34.7323H10.4028ZM14.3099 34.203L3.78823 23.6813L3.32958 20.5661C3.3397 20.5778 3.34347 20.5926 3.35462 20.6037L14.6492 31.8982L14.3099 34.203ZM14.8792 30.336L4.69901 20.1559H7.34302L15.0855 27.8984C15.1265 27.9394 15.1764 27.9632 15.2244 27.9906L14.8792 30.336ZM15.4484 26.4689L9.13525 20.1557H11.7793L15.602 23.9781C15.6592 24.0353 15.7261 24.0763 15.7961 24.107L15.4484 26.4689ZM16.0177 22.6016L13.5717 20.1559H15.846H16.3777L16.0177 22.6016ZM17.7455 16.9865C17.7455 18.0348 16.8935 18.8883 15.846 18.8883H3.16715C2.11967 18.8883 1.26772 18.0348 1.26772 16.9865V16.3093C1.26772 15.722 1.48932 15.2027 1.8912 14.8462C2.23167 14.5449 2.67282 14.3857 3.15034 14.3857C3.23884 14.3857 3.32855 14.3914 3.41894 14.4025C3.6553 14.4341 9.23936 15.1775 11.9611 15.1775C13.5373 15.1775 15.6306 14.6526 15.6949 14.636C16.2563 14.5171 16.7721 14.6212 17.1511 14.9293C17.5345 15.2392 17.7455 15.7294 17.7455 16.3093V16.9865Z" fill="#007D6E"/>
</svg>
