<svg width="73" height="68" viewBox="0 0 73 68" fill="none" xmlns="http://www.w3.org/2000/svg">
<path d="M7.99738 10.8121C11.6789 12.0988 13.6417 15.5777 14.163 17.1564C13.4183 17.5138 10.9997 18.0142 7.28253 17.1564C3.56531 16.2985 0.878669 12.4205 0 10.5887C1.13184 10.127 4.3159 9.52535 7.99738 10.8121Z" fill="#0067A5"/>
<path d="M13.8947 6.96978C12.322 11.3304 13.984 15.399 15.0116 16.8883C16.8434 16.3969 20.7751 14.2076 21.8474 9.3824C22.9197 4.55717 21.4006 1.11695 20.5071 0C18.9582 0.506352 15.4674 2.6092 13.8947 6.96978Z" fill="#0067A5"/>
<circle cx="63.1299" cy="11.6165" r="4.46781" fill="#0067A5"/>
<path d="M13.3135 20.552V23.2774C14.5645 23.7391 17.1111 25.5113 17.2898 28.9069C17.4685 32.3024 14.7134 34.2235 13.3135 34.7597V44.0527C13.4028 46.9866 15.3419 52.8454 22.3831 52.8096C29.4244 52.7739 31.3634 46.9568 31.4528 44.0527C31.4379 38.1999 31.417 26.2619 31.4528 25.3326C31.4885 24.4033 31.6762 22.8604 31.7655 22.2051C32.2868 20.1202 34.5356 15.6821 39.3608 14.6099C44.186 13.5376 47.805 15.6226 49.0113 16.7991C49.4432 17.4097 50.6822 18.6756 52.1834 18.8543C53.6846 19.033 54.8343 18.1841 55.2215 17.7373C55.6087 17.1863 56.2313 15.6643 55.6236 13.9844C55.016 12.3045 51.9749 10.2761 50.5303 9.47187C47.2688 7.68475 39.0213 5.34362 32.123 10.2761C25.2247 15.2085 23.9766 22.3689 24.2149 25.3326V44.0527C24.066 44.6037 23.4911 45.6969 22.3831 45.6611C21.2751 45.6254 20.6705 44.574 20.5066 44.0527V20.552C20.5364 19.4798 19.8901 17.3084 17.0664 17.2012C14.2428 17.094 13.3879 19.3904 13.3135 20.552Z" fill="#0067A5"/>
<path fill-rule="evenodd" clip-rule="evenodd" d="M37.7079 16.4417C37.0377 16.7693 35.4025 17.8445 34.223 19.5244C33.0435 21.2043 32.8975 21.9519 32.972 22.1158C37.3058 22.503 45.9644 25.5024 45.9286 34.4022C45.8929 43.3021 39.9567 46.3611 36.993 46.7781C36.1441 46.8674 34.3659 47.064 34.0443 47.1355C33.6422 47.2249 31.2742 48.0737 31.587 50.5757C31.8372 52.5773 33.3294 53.4053 34.0443 53.5691C36.3675 53.6734 41.997 52.9347 45.9286 49.146C49.8603 45.3573 51.5581 41.521 51.9155 40.0764C52.0495 39.4807 52.3265 38.1999 52.3623 37.8425C52.3809 37.6558 52.3842 37.5666 52.3809 37.5304C54.1943 37.5952 58.5564 38.4602 61.6553 41.4167C64.7649 44.3833 65.2742 47.6567 65.1402 48.9226C65.17 50.0247 65.9176 52.2467 68.6698 52.3182C71.4219 52.3896 72.2887 50.0843 72.3781 48.9226C72.4674 46.8228 72.664 41.6044 72.7355 37.5297C72.807 33.4551 72.4376 27.4622 72.244 24.9752C71.8419 22.2945 69.4472 16.942 63.085 16.9778C56.7229 17.0135 54.4175 22.3243 54.06 24.9752C54.0154 25.9283 53.926 27.9597 53.926 28.4601C53.926 28.9605 53.9856 29.9493 54.0154 30.3812H52.0495C51.5878 28.4898 49.896 24.0012 46.8222 21.1775C43.7483 18.3539 39.4652 16.8438 37.7079 16.4417ZM61.1639 32.4365V25.9582C61.1936 25.3773 61.6374 24.2157 63.1744 24.2157C64.7113 24.2157 65.0657 25.3773 65.0509 25.9582V35.0725C64.6488 34.7002 63.6926 33.8483 63.085 33.4194C62.4774 32.9905 61.5511 32.5854 61.1639 32.4365Z" fill="#0067A5"/>
<rect x="13.1797" y="56.4731" width="59.0644" height="11.5269" rx="5.76347" fill="#0067A5"/>
<path d="M57.6336 60.2705H54.1041L53.7913 61.4322L56.7848 61.4322H57.4996C57.5741 61.447 57.7498 61.4947 57.857 61.5662C57.9643 61.6377 57.9911 61.7747 57.9911 61.8343V62.6385H46.6428C46.5833 62.6236 46.4463 62.5759 46.3748 62.5044C46.3033 62.4329 46.2854 62.3257 46.2854 62.281V58.3047L45.0791 58.7068V62.4597C45.094 62.6534 45.2399 63.112 45.7046 63.398C46.1692 63.6839 46.6428 63.7554 46.8215 63.7554H59.108V61.6109C59.0931 61.447 58.974 61.03 58.6166 60.6726C58.2591 60.3152 57.8124 60.2556 57.6336 60.2705Z" fill="white"/>
<circle cx="55.6692" cy="59.1091" r="0.848884" fill="white"/>
<path d="M27.1143 61.8177C27.9934 61.9127 28.6008 62.5722 28.7946 62.8901C28.6474 63.0056 28.1366 63.2366 27.2708 63.237C26.405 63.2374 25.6176 62.5273 25.3321 62.1722C25.5598 62.0145 26.2351 61.7228 27.1143 61.8177Z" fill="white"/>
<path d="M28.2525 60.6782C28.1315 61.6996 28.6874 62.5003 28.9805 62.773C29.3477 62.5774 30.0801 61.9117 30.0713 60.814C30.0624 59.7163 29.5681 59.0448 29.322 58.8463C29.0159 59.0314 28.3735 59.6568 28.2525 60.6782Z" fill="white"/>
<path d="M42.4896 59.2432L41.8641 58.3496L38.6026 60.2708V61.4771H42.8024C42.9066 61.5069 43.1151 61.6558 43.1151 62.0132C43.1151 62.3706 42.9066 62.5493 42.8024 62.594H30.2478C29.6968 62.6238 28.5947 63.014 28.5947 64.3365C28.5947 65.6589 29.6968 66.0193 30.2478 66.0342H33.3306L32.5711 64.8726H30.2478C30.0989 64.8428 29.801 64.6939 29.801 64.3365C29.801 63.979 30.0989 63.8599 30.2478 63.845H31.8115H42.8024C43.3385 63.7259 44.3929 63.1748 44.3214 61.9239C44.2499 60.6729 43.2789 60.3006 42.8024 60.2708H40.7472L42.4896 59.2432Z" fill="white"/>
</svg>
