<?xml version="1.0" encoding="utf-8"?>
<!-- Generator: Adobe Illustrator 23.0.5, SVG Export Plug-In . SVG Version: 6.00 Build 0)  -->
<svg version="1.1" id="Layer_1" xmlns="http://www.w3.org/2000/svg" xmlns:xlink="http://www.w3.org/1999/xlink" x="0px" y="0px"
	 viewBox="0 0 282.5 284.4" style="enable-background:new 0 0 282.5 284.4;" xml:space="preserve">
<style type="text/css">
	.st0{fill:none;stroke:#007D6E;stroke-opacity:0.25;}
</style>
<path class="st0" d="M90.2,181.8l-0.2-0.2 M90,181.7l-6.2-4.7l-0.9-7.2l17.9-2.7L90,181.7z"/>
<path class="st0" d="M117.1,148.5l0.2,0.2 M117.3,148.6l6.2,4.7l0.9,7.2l-17.9,2.7L117.3,148.6z"/>
<path class="st0" d="M120.5,128.6l0,0.3 M120.5,128.9l1,7.7l-4.4,5.7l-14.5-10.8L120.5,128.9z"/>
<path class="st0" d="M76.9,133.2l0-0.3 M76.9,132.9l-1-7.7l4.4-5.7l14.5,10.8L76.9,132.9z"/>
<path class="st0" d="M44.4,173.4l-0.3,0 M44.1,173.4l-8.8,1.3l-5.2,7L6.3,164l19.1-25.8l6.4,4.7l8.6-1.3l1.9,9l7,5.2l-6.5,8.7
	L44.1,173.4z"/>
<path class="st0" d="M81.4,156.4L83,167l17.7-2.6l14-18.9l-18.2-13l-18.2,2.7l1.3,8.6l-5.4,7.3L81.4,156.4z"/>
<path class="st0" d="M87.7,108.6l-6.4,8.6l14.4,10.6l23.2-3.4l-3.6-22.1l-14.8-11l-5.2,7l-8.9,1.3L87.7,108.6z"/>
<path class="st0" d="M108.9,194.8l8.2,6.1l9.3-12.5l-3.4-22.8l-20.1,3l-10.4,14.1l6.6,4.9l1.3,8.5L108.9,194.8z"/>
<path class="st0" d="M53.1,211.3l1.4,9.1l7.1-1l3.9-5.2l-5.2-3.9L53.1,211.3z"/>
<path class="st0" d="M84.3,216l-1.4-9.1l-7.1,1l-3.9,5.2l5.2,3.9L84.3,216z"/>
<path class="st0" d="M87.7,200.5l9.1-1.4l-1.1-7.1l-5.2-3.9l-3.9,5.2L87.7,200.5z"/>
<path class="st0" d="M33.5,184.3l7.4,5.5l4.3-5.7l-1-6.4l-6.4,1L33.5,184.3z"/>
<path class="st0" d="M63.1,144.2l7.4,5.5l4.3-5.7l-1-6.4l-6.4,1L63.1,144.2z"/>
<path class="st0" d="M32.8,127.7l-5.5,7.4l5.7,4.3l6.4-1l-1-6.4L32.8,127.7z"/>
<path class="st0" d="M37.5,94.1l1.4,9.1l7.1-1.1l3.9-5.2L44.6,93L37.5,94.1z"/>
<path class="st0" d="M71.5,156.5l-5.5,7.4l5.7,4.3l6.4-1l-1-6.4L71.5,156.5z"/>
<path class="st0" d="M59.7,164.3l-7.4-5.5l-4.3,5.7l1,6.4l6.4-1L59.7,164.3z"/>
<path class="st0" d="M54.6,155.3l7.5,5.6l5.6-7.5l-7.5-5.6L54.6,155.3z"/>
<path class="st0" d="M73,98.8l9.3-1.4l-1.4-9.3l-9.3,1.4L73,98.8z"/>
<path class="st0" d="M86.8,205.1l1.4,9.3l9.3-1.4l-1.4-9.3L86.8,205.1z"/>
<path class="st0" d="M51.5,153l5.5-7.4l-5.7-4.3l-6.4,1l1,6.4L51.5,153z"/>
<path class="st0" d="M68.7,98.8l-1.4-9.1l-7.1,1.1l-3.9,5.2l5.2,3.9L68.7,98.8z"/>
<path class="st0" d="M83,101.3l-9.1,1.4l1.1,7.1l5.2,3.9l3.9-5.2L83,101.3z"/>
<path class="st0" d="M67.7,210.4l-0.3-0.2 M67.4,210.2l-5.8-4.3l-8.6,1.3l-1.4-9.1l-7-5.2l5.4-7.3l-1.4-9.1l8.6-1.3l6-8.1l7.3,5.4
	l9.1-1.4l1.3,8.6l6.1,4.5l-6.2,8.4l1.3,8.6l-9.1,1.4L67.4,210.2z"/>
<path class="st0" d="M58.2,141.4l-0.3-0.2 M57.9,141.2l-5.8-4.3l-8.6,1.3l-1.4-9.1l-7-5.2l5.4-7.3l-1.4-9.1l8.6-1.3l6-8.1l7.3,5.4
	l9.1-1.4l1.3,8.6l6.1,4.5l-6.2,8.4l1.3,8.6l-9.1,1.4L57.9,141.2z"/>
<path class="st0" d="M165.3,80.5l-0.2-0.2 M165.1,80.4l-6.3-4.5l-7.1,1.2l2.7,17.9L165.1,80.4z"/>
<path class="st0" d="M141.1,116.1l0.2,0.2 M141.3,116.3l6.3,4.5l7.1-1.2l-2.7-17.9L141.3,116.3z"/>
<path class="st0" d="M123.1,125.2l0.3,0 M123.3,125.1l7.7-1.3l4.2-5.9l-14.5-10.8L123.3,125.1z"/>
<path class="st0" d="M114.8,82.1l-0.3,0 M114.5,82.1l-7.7,1.3l-4.2,5.9l14.5,10.8L114.5,82.1z"/>
<path class="st0" d="M143.8,39.3l0-0.3 M143.7,39.1l-1.3-8.8l5.2-7L123.8,5.6l-19.1,25.8l6.4,4.7l1.3,8.6l9.2-0.8l7,5.2l6.5-8.7
	L143.7,39.1z"/>
<path class="st0" d="M138.8,78.8l10.6-1.6l2.6,17.7l-14,18.9l-17.8-13.6l-2.7-18.2l8.6-1.3l5.4-7.3L138.8,78.8z"/>
<path class="st0" d="M182.9,94.6l8.2,6l-9.2,12.5l-22.8,3.5l-3.1-19.9l10.3-14l6.7,4.8l8.5-1.3L182.9,94.6z"/>
<path class="st0" d="M182.6,36.7l9.1-1.4l1.1,7.1l-3.9,5.2l-5.2-3.9L182.6,36.7z"/>
<path class="st0" d="M196.1,65.1l-9.1,1.4l-1.1-7.1l3.9-5.2l5.2,3.9L196.1,65.1z"/>
<path class="st0" d="M182.3,72.9l1.3,9.1l-7.1,1.1l-5.2-3.9l3.9-5.2L182.3,72.9z"/>
<path class="st0" d="M151,25.7l7.4,5.5l-4.3,5.7l-6.4,1l-1-6.4L151,25.7z"/>
<path class="st0" d="M121.3,65.7l7.4,5.5l-4.3,5.7l-6.4,1l-1-6.4L121.3,65.7z"/>
<path class="st0" d="M96.7,41.5l5.5-7.4l5.7,4.3l1,6.4l-6.4,1L96.7,41.5z"/>
<path class="st0" d="M65.9,55.8l9.1-1.3l1.1,7.1l-3.9,5.2L67,62.9L65.9,55.8z"/>
<path class="st0" d="M135.5,70.2l5.5-7.4l5.7,4.3l1,6.4l-6.4,1L135.5,70.2z"/>
<path class="st0" d="M139.5,56.6l-7.4-5.5l4.3-5.7l6.4-1l1,6.4L139.5,56.6z"/>
<path class="st0" d="M129.5,54.4L137,60l-5.6,7.5l-7.5-5.6L129.5,54.4z"/>
<path class="st0" d="M186.4,70.7l9.3-1.4l1.4,9.3l-9.3,1.4L186.4,70.7z"/>
<path class="st0" d="M126.4,52l-5.5,7.4l-5.7-4.3l-1-6.4l6.4-1L126.4,52z"/>
<path class="st0" d="M79.4,84.3l-9.1,1.4l-1.1-7.1l3.9-5.2l5.2,3.9L79.4,84.3z"/>
<path class="st0" d="M86,97.2l-1.4-9.1l7.1-1.1l5.2,3.9l-3.9,5.2L86,97.2z"/>
<path class="st0" d="M186,50.9l-0.3-0.2 M185.7,50.7l-5.8-4.3l-1.3-8.6l-9.1,1.4l-7-5.2l-5.4,7.3l-9.1,1.4l1.3,8.6l-6,8.1l7.3,5.4
	l1.4,9.1l8.6-1.3l6.1,4.5l6.2-8.4l8.6-1.3l-1.4-9.1L185.7,50.7z"/>
<path class="st0" d="M117.2,61.9l-0.3-0.2 M116.9,61.7l-5.8-4.3l-1.3-8.6l-9.1,1.3l-7-5.2l-5.4,7.3l-9.1,1.4l1.3,8.6l-6,8.1l7.3,5.4
	l1.4,9.1l8.6-1.3l6.1,4.5l6.2-8.4l8.6-1.3l-1.3-9.1L116.9,61.7z"/>
<path class="st0" d="M54.6,259.6l-7.3-59.3L-0.2,165l36.8-49.6l-8.6-58.1l59.6-8.9l35.7-48.2l47.3,35.1l56.6-8.4"/>
<path class="st0" d="M118.4,202.7l0.2,0.2 M118.6,202.8l6.3,4.5l7.1-1.2l-2.7-17.9L118.6,202.8z"/>
<path class="st0" d="M142.5,167.3l-0.2-0.2 M142.3,167.2l-6.3-4.5l-7.1,1.2l2.7,17.9L142.3,167.2z"/>
<path class="st0" d="M160.5,158.3l-0.3,0 M160.2,158.3l-7.7,1.3l-4.2,5.9l14.5,10.8L160.2,158.3z"/>
<path class="st0" d="M168.8,201.3l0.3,0 M169.1,201.3l7.7-1.3l4.2-5.9l-14.5-10.8L169.1,201.3z"/>
<path class="st0" d="M139.8,244.1l0,0.3 M139.8,244.3l1.3,8.8l-5.2,7l23.8,17.6l19.1-25.8l-6.4-4.7l-1.3-8.6l-9.2,0.8l-7-5.2
	l-6.5,8.7L139.8,244.3z"/>
<path class="st0" d="M144.9,203.4l-10.6,1.6l-2.6-17.7l14-18.9l17.8,13.6l2.7,18.2l-8.6,1.3l-5.4,7.3L144.9,203.4z"/>
<path class="st0" d="M189.2,183.8l-6.4,8.6l-14.4-10.6l-3.4-23.2l22.2-2.9l14.8,11l-5.2,7l1.3,8.9L189.2,183.8z"/>
<path class="st0" d="M100.9,246.8l-9.1,1.4l-1.1-7.1l3.9-5.2l5.2,3.9L100.9,246.8z"/>
<path class="st0" d="M87.4,218.3l9.1-1.4l1.1,7.1l-3.9,5.2l-5.2-3.9L87.4,218.3z"/>
<path class="st0" d="M101.2,210.6l-1.4-9.1l7.1-1.1l5.2,3.9l-3.9,5.2L101.2,210.6z"/>
<path class="st0" d="M132.5,257.7l-7.4-5.5l4.3-5.7l6.4-1l1,6.4L132.5,257.7z"/>
<path class="st0" d="M162.2,217.7l-7.4-5.5l4.3-5.7l6.4-1l1,6.4L162.2,217.7z"/>
<path class="st0" d="M186.9,242l-5.5,7.4l-5.7-4.3l-1-6.4l6.4-1L186.9,242z"/>
<path class="st0" d="M217.6,227.6l-9.1,1.4l-1.1-7.1l3.9-5.2l5.2,3.9L217.6,227.6z"/>
<path class="st0" d="M148.1,213.2l-5.5,7.4l-5.7-4.3l-1-6.4l6.4-1L148.1,213.2z"/>
<path class="st0" d="M144,226.8l7.4,5.5l-4.3,5.7l-6.4,1l-1-6.4L144,226.8z"/>
<path class="st0" d="M154.1,229.1l-7.5-5.6l5.6-7.5l7.5,5.6L154.1,229.1z"/>
<path class="st0" d="M202.8,195.1l-1.4-9.3l9.3-1.4l1.4,9.3L202.8,195.1z"/>
<path class="st0" d="M157.2,231.4l5.5-7.4l5.7,4.3l1,6.4l-6.4,1L157.2,231.4z"/>
<path class="st0" d="M204.1,199.2l9.1-1.4l1.1,7.1l-3.9,5.2l-5.2-3.9L204.1,199.2z"/>
<path class="st0" d="M197.5,186.2l1.4,9.1l-7.1,1.1l-5.2-3.9l3.9-5.2L197.5,186.2z"/>
<path class="st0" d="M97.5,232.6l0.3,0.2 M97.8,232.8l5.8,4.3l1.3,8.6l9.1-1.4l7,5.2l5.4-7.3l9.1-1.4l-1.3-8.6l6-8.1l-7.3-5.4
	l-1.4-9.1L123,211l-6.1-4.5l-6.2,8.4l-8.6,1.3l1.4,9.1L97.8,232.8z"/>
<path class="st0" d="M166.4,221.6l0.3,0.2 M166.7,221.8l5.8,4.3l1.3,8.6l9.1-1.4l7,5.2l5.4-7.3l9.1-1.4l-1.3-8.6l6-8.1l-7.3-5.4
	l-1.3-9.1l-8.6,1.3l-6.1-4.5l-6.2,8.4l-8.6,1.3l1.4,9.1L166.7,221.8z"/>
<path class="st0" d="M219.5,217.4l1.2,8.1l28.8-4.3l-4.3-28.8l-8.1,1.2l-7-5.2l-5.4,7.2l-8.1,1.2l1.2,8.1l-5.4,7.2L219.5,217.4z"/>
<path class="st0" d="M219.9,60.7l8.1-1.2l-4.3-28.8L195,35l1.2,8.1l-5.2,7l7.2,5.4l1.2,8.1l8.1-1.2l7.2,5.4L219.9,60.7z"/>
<path class="st0" d="M63.9,65.5l-1.2-8.1l-28.8,4.3l4.3,28.8l8.1-1.2l7,5.2l5.4-7.2l8.1-1.2l-1.2-8.1l5.4-7.2L63.9,65.5z"/>
<path class="st0" d="M64,222.5l-8.1,1.2l4.3,28.8l28.8-4.3l-1.2-8.1l5.2-7l-7.2-5.4l-1.2-8.1l-8.1,1.2l-7.2-5.4L64,222.5z"/>
<path class="st0" d="M192.9,101l0.2,0.2 M193.1,101.2l6.2,4.7l0.9,7.2l-17.9,2.7L193.1,101.2z"/>
<path class="st0" d="M166.5,134.9l-0.2-0.2 M166.3,134.8l-6.2-4.7l-0.9-7.2l17.9-2.7L166.3,134.8z"/>
<path class="st0" d="M163,154.8l0-0.3 M163,154.5l-1-7.7l4.4-5.7l14.5,10.8L163,154.5z"/>
<path class="st0" d="M206.7,150.2l0,0.3 M206.7,150.5l1,7.7l-4.4,5.7l-14.5-10.8L206.7,150.5z"/>
<path class="st0" d="M239.2,110.1l0.3,0 M239.4,110l8.8-1.3l5.2-7l23.8,17.6l-19.1,25.8l-6.4-4.7l-8.6,1.3l-1.9-9l-7-5.2l6.5-8.7
	L239.4,110z"/>
<path class="st0" d="M202.8,126.3l-1.6-10.6l-17.7,2.6l-14,18.9l18.2,13l18.2-2.7l-1.3-8.6l5.4-7.3L202.8,126.3z"/>
<path class="st0" d="M230.4,72.1l-1.4-9.1l-7.1,1l-3.9,5.2l5.2,3.9L230.4,72.1z"/>
<path class="st0" d="M199.3,67.4l1.4,9.1l7.1-1.1l3.9-5.2l-5.2-3.9L199.3,67.4z"/>
<path class="st0" d="M195.9,82.9l-9.1,1.4l1.1,7.1l5.2,3.9l3.9-5.2L195.9,82.9z"/>
<path class="st0" d="M250.1,99.2l-7.4-5.5l-4.3,5.7l1,6.4l6.4-1L250.1,99.2z"/>
<path class="st0" d="M220.4,139.2l-7.4-5.5l-4.3,5.7l1,6.4l6.4-1L220.4,139.2z"/>
<path class="st0" d="M250.8,155.7l5.5-7.4l-5.7-4.3l-6.4,1l1,6.4L250.8,155.7z"/>
<path class="st0" d="M246,189.3l-1.4-9.1l-7.1,1.1l-3.9,5.2l5.2,3.9L246,189.3z"/>
<path class="st0" d="M212,127l5.5-7.4l-5.7-4.3l-6.4,1l1,6.4L212,127z"/>
<path class="st0" d="M223.8,119.2l7.4,5.5l4.3-5.7l-1-6.4l-6.4,1L223.8,119.2z"/>
<path class="st0" d="M228.9,128.1l-7.5-5.6l-5.6,7.5l7.5,5.6L228.9,128.1z"/>
<path class="st0" d="M232.1,130.4l-5.5,7.4l5.7,4.3l6.4-1l-1-6.4L232.1,130.4z"/>
<path class="st0" d="M214.9,184.7l1.4,9.1l7.1-1.1l3.9-5.2l-5.2-3.9L214.9,184.7z"/>
<path class="st0" d="M200.6,182.1l9.1-1.4l-1.1-7.1l-5.2-3.9l-3.9,5.2L200.6,182.1z"/>
<path class="st0" d="M215.8,73l0.3,0.2 M216.1,73.2l5.8,4.3l8.6-1.3l1.4,9.1l7,5.2l-5.4,7.3l1.4,9.1l-8.6,1.3l-6,8.1l-7.3-5.4
	l-9.1,1.4l-1.3-8.6l-6.1-4.5l6.2-8.4l-1.3-8.6l9.1-1.4L216.1,73.2z"/>
<path class="st0" d="M225.3,142.1l0.3,0.2 M225.6,142.3l5.8,4.3l8.6-1.3l1.4,9.1l7,5.2l-5.4,7.3l1.3,9.1l-8.6,1.3l-6,8.1l-7.3-5.4
	l-9.1,1.4l-1.3-8.6l-6.1-4.5l6.2-8.4l-1.3-8.6l9.1-1.4L225.6,142.3z"/>
<path class="st0" d="M54.3,259.4l58.9-10.3l47.6,35.3l36.8-49.6l58.1-8.6l-8.9-59.6l35.7-48.2l-47.3-35.1l-8.4-56.6"/>
<path class="st0" d="M121,145.5l7,5.2l1.3,9l9-1.3l7,5.2l5.6-7.5l8.5-1.3l-1.3-8.5l5-6.7l-7-5.2l-1.3-9l-9,1.3l-7-5.2l-5,6.7
	l-8.5,1.3l1.3,8.5L121,145.5z"/>
</svg>
