<svg width="14" height="14" viewBox="0 0 14 14" fill="none" xmlns="http://www.w3.org/2000/svg">
<path d="M7.83073 4.59066L7.84168 4.59066M7.84168 4.59066L8.17549 4.59676L8.38948 4.82074L7.84168 5.36854L7.84168 4.59066Z" stroke="#007D6E" stroke-opacity="0.61" stroke-width="0.2"/>
<path d="M7.75814 6.42618L7.74719 6.42618M7.74719 6.42618L7.41338 6.42009L7.19939 6.19611L7.74719 5.64831L7.74719 6.42618Z" stroke="#007D6E" stroke-opacity="0.61" stroke-width="0.2"/>
<path d="M8.14618 7.19775L8.13844 7.19001M8.13844 7.19001L7.90671 6.94966L7.91377 6.63997L8.68848 6.63997L8.13844 7.19001Z" stroke="#007D6E" stroke-opacity="0.61" stroke-width="0.2"/>
<path d="M9.53448 5.92725L9.54223 5.93499M9.54223 5.93499L9.77396 6.17534L9.76689 6.48503H8.99219L9.54223 5.93499Z" stroke="#007D6E" stroke-opacity="0.61" stroke-width="0.2"/>
<path d="M9.62695 3.71154L9.6347 3.7038M9.6347 3.7038L9.90585 3.43265V3.06079H11.1764V4.43977H10.8355L10.5721 4.70317L10.2777 4.43977H9.90585V3.97494L9.6347 3.7038Z" stroke="#007D6E" stroke-opacity="0.61" stroke-width="0.2"/>
<path d="M8.78466 5.24359L8.45929 4.91821L7.91699 5.46051V6.46762L8.87763 6.45213L9.43541 5.89434L9.17201 5.63094V5.24359H8.78466Z" stroke="#007D6E" stroke-opacity="0.61" stroke-width="0.2"/>
<path d="M9.78971 7.04942L9.78971 6.58927H9.02279L8.31065 7.30141L9.00088 7.96972L9.78971 7.96972L9.78971 7.59722L10.0636 7.32332L9.78971 7.04942Z" stroke="#007D6E" stroke-opacity="0.61" stroke-width="0.2"/>
<path d="M6.85847 4.62174H6.42001V5.28988L7.11947 5.98934L7.73541 5.3734L7.73541 4.62174L7.38046 4.62174L7.11947 4.36075L6.85847 4.62174Z" stroke="#007D6E" stroke-opacity="0.61" stroke-width="0.2"/>
<path d="M8.35616 2.62679L8.07727 2.3479L7.86035 2.56482V2.84371H8.13925L8.35616 2.62679Z" stroke="#007D6E" stroke-opacity="0.61" stroke-width="0.2"/>
<path d="M7.16239 3.26212L7.44129 3.54102L7.6582 3.3241V3.0452H7.37931L7.16239 3.26212Z" stroke="#007D6E" stroke-opacity="0.61" stroke-width="0.2"/>
<path d="M7.44198 3.88187L7.16309 4.16077L7.38 4.37769L7.6589 4.37769L7.6589 4.09879L7.44198 3.88187Z" stroke="#007D6E" stroke-opacity="0.61" stroke-width="0.2"/>
<path d="M9.72553 3.05633H9.33112V3.3631L9.52833 3.56031L9.72553 3.3631V3.05633Z" stroke="#007D6E" stroke-opacity="0.61" stroke-width="0.2"/>
<path d="M9.72553 5.19452H9.33112V5.50128L9.52833 5.69849L9.72553 5.50128V5.19452Z" stroke="#007D6E" stroke-opacity="0.61" stroke-width="0.2"/>
<path d="M11.1934 4.9875L11.1934 4.59308L10.8867 4.59308L10.6894 4.79029L10.8867 4.9875L11.1934 4.9875Z" stroke="#007D6E" stroke-opacity="0.61" stroke-width="0.2"/>
<path d="M11.8884 6.26815L11.6095 5.98926L11.3926 6.20618L11.3926 6.48507L11.6715 6.48507L11.8884 6.26815Z" stroke="#007D6E" stroke-opacity="0.61" stroke-width="0.2"/>
<path d="M9.12409 4.9875L9.12409 4.59308L8.81732 4.59308L8.62011 4.79029L8.81732 4.9875L9.12409 4.9875Z" stroke="#007D6E" stroke-opacity="0.61" stroke-width="0.2"/>
<path d="M9.33111 4.41681H9.72552V4.11004L9.52831 3.91284L9.33111 4.11004V4.41681Z" stroke="#007D6E" stroke-opacity="0.61" stroke-width="0.2"/>
<path d="M9.73585 4.59473H9.33301V4.99757H9.73585V4.59473Z" stroke="#007D6E" stroke-opacity="0.61" stroke-width="0.2"/>
<path d="M10.5476 7.01178L10.2627 7.29663L10.5476 7.58149L10.8324 7.29663L10.5476 7.01178Z" stroke="#007D6E" stroke-opacity="0.61" stroke-width="0.2"/>
<path d="M7.35614 3.70185L7.07129 3.41699L6.78643 3.70185L7.07129 3.9867L7.35614 3.70185Z" stroke="#007D6E" stroke-opacity="0.61" stroke-width="0.2"/>
<path d="M9.9013 4.59307L9.9013 4.98749L10.2081 4.98749L10.4053 4.79028L10.2081 4.59307L9.9013 4.59307Z" stroke="#007D6E" stroke-opacity="0.61" stroke-width="0.2"/>
<path d="M10.6966 6.90323L10.9755 7.18213L11.1924 6.96521L11.1924 6.68632L10.9135 6.68632L10.6966 6.90323Z" stroke="#007D6E" stroke-opacity="0.61" stroke-width="0.2"/>
<path d="M10.1381 7.18233L10.417 6.90344L10.2001 6.68652L9.92118 6.68652L9.92118 6.96542L10.1381 7.18233Z" stroke="#007D6E" stroke-opacity="0.61" stroke-width="0.2"/>
<path d="M7.8757 3.03H7.8912M7.8912 3.03H8.20108L8.46448 2.7666L8.74337 3.0455H9.11523V3.43285L9.39413 3.71174L9.13073 3.97514V4.40898H8.74337L8.46448 4.68787L8.20108 4.42447H7.8757V3.97514L7.6123 3.71174L7.8912 3.43285V3.03Z" stroke="#007D6E" stroke-opacity="0.61" stroke-width="0.2"/>
<path d="M9.9675 5.16818H9.983M9.983 5.16818H10.2929L10.5563 4.90479L10.8352 5.18368H11.207V5.57103L11.4859 5.84993L11.2225 6.11333V6.54716H10.8352L10.5563 6.82605L10.2929 6.56265H9.9675V6.11333L9.7041 5.84993L9.983 5.57103V5.16818Z" stroke="#007D6E" stroke-opacity="0.61" stroke-width="0.2"/>
<path d="M7.83073 10.0002L7.84168 10.0002M7.84168 10.0002L8.17549 9.99406L8.38948 9.77008L7.84168 9.22228L7.84168 10.0002Z" stroke="#007D6E" stroke-opacity="0.61" stroke-width="0.2"/>
<path d="M7.75814 8.15511L7.74719 8.15511M7.74719 8.15511L7.41338 8.16121L7.19939 8.38519L7.74719 8.93299L7.74719 8.15511Z" stroke="#007D6E" stroke-opacity="0.61" stroke-width="0.2"/>
<path d="M8.14618 7.38354L8.13844 7.39129M8.13844 7.39129L7.90671 7.63164L7.91377 7.94133L8.68848 7.94133L8.13844 7.39129Z" stroke="#007D6E" stroke-opacity="0.61" stroke-width="0.2"/>
<path d="M9.53448 8.65405L9.54223 8.64631M9.54223 8.64631L9.77396 8.40596L9.76689 8.09627H8.99219L9.54223 8.64631Z" stroke="#007D6E" stroke-opacity="0.61" stroke-width="0.2"/>
<path d="M9.62695 10.8698L9.6347 10.8775M9.6347 10.8775L9.90585 11.1486V11.5205H11.1764V10.1415H10.8355L10.5721 9.87813L10.2777 10.1415H9.90585V10.6064L9.6347 10.8775Z" stroke="#007D6E" stroke-opacity="0.61" stroke-width="0.2"/>
<path d="M8.78954 9.38214L8.46417 9.70752L7.92188 9.16523V8.15811L8.88251 8.1736L9.4403 8.73139L9.1769 8.99479V9.38214H8.78954Z" stroke="#007D6E" stroke-opacity="0.61" stroke-width="0.2"/>
<path d="M6.86627 9.96481L6.43038 9.96973L6.42914 9.30548L7.12319 8.60224L7.73665 9.20768L7.73805 9.95496L7.38518 9.95895L7.12621 10.2214L6.86627 9.96481Z" stroke="#007D6E" stroke-opacity="0.61" stroke-width="0.2"/>
<path d="M8.35616 11.9543L8.07727 12.2332L7.86035 12.0162V11.7373H8.13925L8.35616 11.9543Z" stroke="#007D6E" stroke-opacity="0.61" stroke-width="0.2"/>
<path d="M7.16239 11.3192L7.44129 11.0403L7.6582 11.2572V11.5361H7.37931L7.16239 11.3192Z" stroke="#007D6E" stroke-opacity="0.61" stroke-width="0.2"/>
<path d="M7.44198 10.6994L7.16309 10.4205L7.38 10.2036L7.6589 10.2036L7.6589 10.4825L7.44198 10.6994Z" stroke="#007D6E" stroke-opacity="0.61" stroke-width="0.2"/>
<path d="M9.72553 11.5245H9.33112V11.2177L9.52833 11.0205L9.72553 11.2177V11.5245Z" stroke="#007D6E" stroke-opacity="0.61" stroke-width="0.2"/>
<path d="M9.72553 9.38629H9.33112V9.07953L9.52833 8.88232L9.72553 9.07953V9.38629Z" stroke="#007D6E" stroke-opacity="0.61" stroke-width="0.2"/>
<path d="M11.1934 9.5938L11.1934 9.98822L10.8867 9.98822L10.6894 9.79101L10.8867 9.5938L11.1934 9.5938Z" stroke="#007D6E" stroke-opacity="0.61" stroke-width="0.2"/>
<path d="M11.8884 8.31315L11.6095 8.59204L11.3926 8.37512L11.3926 8.09623L11.6715 8.09623L11.8884 8.31315Z" stroke="#007D6E" stroke-opacity="0.61" stroke-width="0.2"/>
<path d="M9.12409 9.5938L9.12409 9.98822L8.81732 9.98822L8.62011 9.79101L8.81732 9.5938L9.12409 9.5938Z" stroke="#007D6E" stroke-opacity="0.61" stroke-width="0.2"/>
<path d="M9.33111 10.1642H9.72552V10.471L9.52831 10.6682L9.33111 10.471V10.1642Z" stroke="#007D6E" stroke-opacity="0.61" stroke-width="0.2"/>
<path d="M9.73585 9.98657H9.33301V9.58373H9.73585V9.98657Z" stroke="#007D6E" stroke-opacity="0.61" stroke-width="0.2"/>
<path d="M7.35614 10.8792L7.07129 11.1641L6.78643 10.8792L7.07129 10.5944L7.35614 10.8792Z" stroke="#007D6E" stroke-opacity="0.61" stroke-width="0.2"/>
<path d="M9.9013 9.98798L9.9013 9.59357L10.2081 9.59357L10.4053 9.79078L10.2081 9.98798L9.9013 9.98798Z" stroke="#007D6E" stroke-opacity="0.61" stroke-width="0.2"/>
<path d="M10.6966 7.67806L10.9755 7.39917L11.1924 7.61609L11.1924 7.89498L10.9135 7.89498L10.6966 7.67806Z" stroke="#007D6E" stroke-opacity="0.61" stroke-width="0.2"/>
<path d="M10.1381 7.39896L10.417 7.67786L10.2001 7.89478L9.92118 7.89478L9.92118 7.61588L10.1381 7.39896Z" stroke="#007D6E" stroke-opacity="0.61" stroke-width="0.2"/>
<path d="M7.8757 11.5513H7.8912M7.8912 11.5513H8.20108L8.46448 11.8147L8.74337 11.5358H9.11523V11.1485L9.39413 10.8696L9.13073 10.6062V10.1723H8.74337L8.46448 9.89343L8.20108 10.1568H7.8757V10.6062L7.6123 10.8696L7.8912 11.1485V11.5513Z" stroke="#007D6E" stroke-opacity="0.61" stroke-width="0.2"/>
<path d="M9.9675 9.41311H9.983M9.983 9.41311H10.2929L10.5563 9.67651L10.8352 9.39762H11.207V9.01027L11.4859 8.73137L11.2225 8.46797V8.03414H10.8352L10.5563 7.75524L10.2929 8.01864H9.9675V8.46797L9.7041 8.73137L9.983 9.01027V9.41311Z" stroke="#007D6E" stroke-opacity="0.61" stroke-width="0.2"/>
<path d="M7.07031 1L8.83664 2.85929H11.3777V5.50878L13.1595 7.29061L11.3312 9.11891V11.6909H8.80565L7.07031 13.4263" stroke="#007D6E" stroke-opacity="0.61" stroke-width="0.2"/>
<path d="M6.32845 4.59066L6.3175 4.59066M6.3175 4.59066L5.98369 4.59676L5.7697 4.82074L6.3175 5.36854L6.3175 4.59066Z" stroke="#007D6E" stroke-opacity="0.61" stroke-width="0.2"/>
<path d="M6.40104 6.42618L6.41199 6.42618M6.41199 6.42618L6.7458 6.42009L6.95979 6.19611L6.41199 5.64831L6.41199 6.42618Z" stroke="#007D6E" stroke-opacity="0.61" stroke-width="0.2"/>
<path d="M6.013 7.19775L6.02074 7.19001M6.02074 7.19001L6.25247 6.94966L6.24541 6.63997L5.4707 6.63997L6.02074 7.19001Z" stroke="#007D6E" stroke-opacity="0.61" stroke-width="0.2"/>
<path d="M4.6247 5.92725L4.61695 5.93499M4.61695 5.93499L4.38522 6.17534L4.39229 6.48503H5.16699L4.61695 5.93499Z" stroke="#007D6E" stroke-opacity="0.61" stroke-width="0.2"/>
<path d="M4.53223 3.71154L4.52448 3.7038M4.52448 3.7038L4.25333 3.43265V3.06079H2.98282V4.43977H3.32369L3.58709 4.70317L3.88147 4.43977H4.25333V3.97494L4.52448 3.7038Z" stroke="#007D6E" stroke-opacity="0.61" stroke-width="0.2"/>
<path d="M5.39503 5.24359L5.7204 4.91821L6.2627 5.46051V6.46762L5.30206 6.45213L4.74427 5.89434L5.00767 5.63094V5.24359H5.39503Z" stroke="#007D6E" stroke-opacity="0.61" stroke-width="0.2"/>
<path d="M4.36947 7.04942L4.36947 6.58927H5.13639L5.84853 7.30141L5.1583 7.96972L4.36947 7.96972L4.36947 7.59722L4.09557 7.32332L4.36947 7.04942Z" stroke="#007D6E" stroke-opacity="0.61" stroke-width="0.2"/>
<path d="M5.80399 2.62679L6.08289 2.3479L6.2998 2.56482V2.84371H6.02091L5.80399 2.62679Z" stroke="#007D6E" stroke-opacity="0.61" stroke-width="0.2"/>
<path d="M6.99679 3.26212L6.71789 3.54102L6.50098 3.3241V3.0452H6.77987L6.99679 3.26212Z" stroke="#007D6E" stroke-opacity="0.61" stroke-width="0.2"/>
<path d="M6.7172 3.88187L6.99609 4.16077L6.77918 4.37769L6.50028 4.37769L6.50028 4.09879L6.7172 3.88187Z" stroke="#007D6E" stroke-opacity="0.61" stroke-width="0.2"/>
<path d="M4.43365 3.05633H4.82806V3.3631L4.63085 3.56031L4.43365 3.3631V3.05633Z" stroke="#007D6E" stroke-opacity="0.61" stroke-width="0.2"/>
<path d="M4.43365 5.19452H4.82806V5.50128L4.63085 5.69849L4.43365 5.50128V5.19452Z" stroke="#007D6E" stroke-opacity="0.61" stroke-width="0.2"/>
<path d="M2.96576 4.9875L2.96576 4.59308L3.27252 4.59308L3.46973 4.79029L3.27252 4.9875L2.96576 4.9875Z" stroke="#007D6E" stroke-opacity="0.61" stroke-width="0.2"/>
<path d="M2.27079 6.26815L2.54968 5.98926L2.7666 6.20618L2.7666 6.48507L2.48771 6.48507L2.27079 6.26815Z" stroke="#007D6E" stroke-opacity="0.61" stroke-width="0.2"/>
<path d="M5.03607 4.9875L5.03607 4.59308L5.34284 4.59308L5.54004 4.79029L5.34284 4.9875L5.03607 4.9875Z" stroke="#007D6E" stroke-opacity="0.61" stroke-width="0.2"/>
<path d="M4.82807 4.41681H4.43366V4.11004L4.63086 3.91284L4.82807 4.11004V4.41681Z" stroke="#007D6E" stroke-opacity="0.61" stroke-width="0.2"/>
<path d="M4.42333 4.59473H4.82617V4.99757H4.42333V4.59473Z" stroke="#007D6E" stroke-opacity="0.61" stroke-width="0.2"/>
<path d="M3.61163 7.01178L3.89648 7.29663L3.61163 7.58149L3.32677 7.29663L3.61163 7.01178Z" stroke="#007D6E" stroke-opacity="0.61" stroke-width="0.2"/>
<path d="M4.25885 4.59307L4.25885 4.98749L3.95208 4.98749L3.75488 4.79028L3.95208 4.59307L4.25885 4.59307Z" stroke="#007D6E" stroke-opacity="0.61" stroke-width="0.2"/>
<path d="M3.46456 6.90323L3.18567 7.18213L2.96875 6.96521L2.96875 6.68632L3.24764 6.68632L3.46456 6.90323Z" stroke="#007D6E" stroke-opacity="0.61" stroke-width="0.2"/>
<path d="M4.02108 7.18233L3.74219 6.90344L3.9591 6.68652L4.238 6.68652L4.238 6.96542L4.02108 7.18233Z" stroke="#007D6E" stroke-opacity="0.61" stroke-width="0.2"/>
<path d="M6.28348 3.03H6.26798M6.26798 3.03H5.9581L5.6947 2.7666L5.41581 3.0455H5.04395V3.43285L4.76505 3.71174L5.02845 3.97514V4.40898H5.41581L5.6947 4.68787L5.9581 4.42447H6.28348V3.97514L6.54688 3.71174L6.26798 3.43285V3.03Z" stroke="#007D6E" stroke-opacity="0.61" stroke-width="0.2"/>
<path d="M4.19168 5.16818H4.17618M4.17618 5.16818H3.8663L3.6029 4.90479L3.32401 5.18368H2.95215V5.57103L2.67326 5.84993L2.93666 6.11333V6.54716H3.32401L3.6029 6.82605L3.8663 6.56265H4.19168V6.11333L4.45508 5.84993L4.17618 5.57103V5.16818Z" stroke="#007D6E" stroke-opacity="0.61" stroke-width="0.2"/>
<path d="M2.46719 6.6702L2.21886 6.42188L1.33594 7.3048L2.21886 8.18773L2.46719 7.9394H2.83967V7.55312L3.08799 7.3048L2.83967 7.05648V6.6702H2.46719Z" stroke="#007D6E" stroke-opacity="0.61" stroke-width="0.2"/>
<path d="M6.45535 12.0777L6.20703 12.3261L7.08996 13.209L7.97288 12.3261L7.72456 12.0777L7.72456 11.7053L7.33828 11.7053L7.08996 11.4569L6.84163 11.7053L6.45535 11.7053L6.45535 12.0777Z" stroke="#007D6E" stroke-opacity="0.61" stroke-width="0.2"/>
<path d="M11.7115 7.92551L11.9598 8.17383L12.8428 7.2909L11.9598 6.40798L11.7115 6.6563L11.339 6.6563L11.339 7.04258L11.0907 7.2909L11.339 7.53923L11.339 7.92551L11.7115 7.92551Z" stroke="#007D6E" stroke-opacity="0.61" stroke-width="0.2"/>
<path d="M7.69699 2.51748L7.94531 2.26916L7.06239 1.38623L6.17946 2.26916L6.42778 2.51748L6.42778 2.88996L6.81406 2.88996L7.06239 3.13829L7.31071 2.88996L7.69699 2.88996L7.69699 2.51748Z" stroke="#007D6E" stroke-opacity="0.61" stroke-width="0.2"/>
<path d="M6.35677 10.0002L6.34582 10.0002M6.34582 10.0002L6.01201 9.99406L5.79802 9.77008L6.34582 9.22228L6.34582 10.0002Z" stroke="#007D6E" stroke-opacity="0.61" stroke-width="0.2"/>
<path d="M6.40104 8.15511L6.41199 8.15511M6.41199 8.15511L6.7458 8.16121L6.95979 8.38519L6.41199 8.93299L6.41199 8.15511Z" stroke="#007D6E" stroke-opacity="0.61" stroke-width="0.2"/>
<path d="M6.013 7.38354L6.02074 7.39129M6.02074 7.39129L6.25247 7.63164L6.24541 7.94133L5.4707 7.94133L6.02074 7.39129Z" stroke="#007D6E" stroke-opacity="0.61" stroke-width="0.2"/>
<path d="M4.6247 8.65405L4.61695 8.64631M4.61695 8.64631L4.38522 8.40596L4.39229 8.09627H5.16699L4.61695 8.64631Z" stroke="#007D6E" stroke-opacity="0.61" stroke-width="0.2"/>
<path d="M4.53223 10.8698L4.52448 10.8775M4.52448 10.8775L4.25333 11.1486V11.5205H2.98282V10.1415H3.32369L3.58709 9.87813L3.88147 10.1415H4.25333V10.6064L4.52448 10.8775Z" stroke="#007D6E" stroke-opacity="0.61" stroke-width="0.2"/>
<path d="M5.36963 9.38214L5.69501 9.70752L6.2373 9.16523V8.15811L5.27667 8.1736L4.71888 8.73139L4.98228 8.99479V9.38214H5.36963Z" stroke="#007D6E" stroke-opacity="0.61" stroke-width="0.2"/>
<path d="M5.80399 11.9543L6.08289 12.2332L6.2998 12.0162V11.7373H6.02091L5.80399 11.9543Z" stroke="#007D6E" stroke-opacity="0.61" stroke-width="0.2"/>
<path d="M6.99679 11.3192L6.71789 11.0403L6.50098 11.2572V11.5361H6.77987L6.99679 11.3192Z" stroke="#007D6E" stroke-opacity="0.61" stroke-width="0.2"/>
<path d="M6.7172 10.6994L6.99609 10.4205L6.77918 10.2036L6.50028 10.2036L6.50028 10.4825L6.7172 10.6994Z" stroke="#007D6E" stroke-opacity="0.61" stroke-width="0.2"/>
<path d="M4.43365 11.5245H4.82806V11.2177L4.63085 11.0205L4.43365 11.2177V11.5245Z" stroke="#007D6E" stroke-opacity="0.61" stroke-width="0.2"/>
<path d="M4.43365 9.38629H4.82806V9.07953L4.63085 8.88232L4.43365 9.07953V9.38629Z" stroke="#007D6E" stroke-opacity="0.61" stroke-width="0.2"/>
<path d="M2.96576 9.5938L2.96576 9.98822L3.27252 9.98822L3.46973 9.79101L3.27252 9.5938L2.96576 9.5938Z" stroke="#007D6E" stroke-opacity="0.61" stroke-width="0.2"/>
<path d="M2.27079 8.31315L2.54968 8.59204L2.7666 8.37512L2.7666 8.09623L2.48771 8.09623L2.27079 8.31315Z" stroke="#007D6E" stroke-opacity="0.61" stroke-width="0.2"/>
<path d="M5.03607 9.5938L5.03607 9.98822L5.34284 9.98822L5.54004 9.79101L5.34284 9.5938L5.03607 9.5938Z" stroke="#007D6E" stroke-opacity="0.61" stroke-width="0.2"/>
<path d="M4.82807 10.1642H4.43366V10.471L4.63086 10.6682L4.82807 10.471V10.1642Z" stroke="#007D6E" stroke-opacity="0.61" stroke-width="0.2"/>
<path d="M4.42333 9.98657H4.82617V9.58373H4.42333V9.98657Z" stroke="#007D6E" stroke-opacity="0.61" stroke-width="0.2"/>
<path d="M4.25885 9.98798L4.25885 9.59357L3.95208 9.59357L3.75488 9.79078L3.95208 9.98798L4.25885 9.98798Z" stroke="#007D6E" stroke-opacity="0.61" stroke-width="0.2"/>
<path d="M3.46456 7.67806L3.18567 7.39917L2.96875 7.61609L2.96875 7.89498L3.24764 7.89498L3.46456 7.67806Z" stroke="#007D6E" stroke-opacity="0.61" stroke-width="0.2"/>
<path d="M4.02108 7.39896L3.74219 7.67786L3.9591 7.89478L4.238 7.89478L4.238 7.61588L4.02108 7.39896Z" stroke="#007D6E" stroke-opacity="0.61" stroke-width="0.2"/>
<path d="M6.28348 11.5513H6.26798M6.26798 11.5513H5.9581L5.6947 11.8147L5.41581 11.5358H5.04395V11.1485L4.76505 10.8696L5.02845 10.6062V10.1723H5.41581L5.6947 9.89343L5.9581 10.1568H6.28348V10.6062L6.54688 10.8696L6.26798 11.1485V11.5513Z" stroke="#007D6E" stroke-opacity="0.61" stroke-width="0.2"/>
<path d="M4.19168 9.41311H4.17618M4.17618 9.41311H3.8663L3.6029 9.67651L3.32401 9.39762H2.95215V9.01027L2.67326 8.73137L2.93666 8.46797V8.03414H3.32401L3.6029 7.75524L3.8663 8.01864H4.19168V8.46797L4.45508 8.73137L4.17618 9.01027V9.41311Z" stroke="#007D6E" stroke-opacity="0.61" stroke-width="0.2"/>
<path d="M7.08984 1L5.32352 2.85929H2.78248V5.50878L1.00066 7.29061L2.82897 9.11891V11.6909H5.3545L7.08984 13.4263" stroke="#007D6E" stroke-opacity="0.61" stroke-width="0.2"/>
<path d="M7.69661 6.6287H7.32413L7.04821 6.35278L6.7723 6.6287H6.39981V7.02877L6.1377 7.29089L6.39981 7.55301V7.9117H6.7723L7.04821 8.18761L7.32413 7.9117H7.69661V7.55301L7.95873 7.29089L7.69661 7.02877V6.6287Z" stroke="#007D6E" stroke-opacity="0.61" stroke-width="0.2"/>
</svg>
