<svg width="59" height="60" viewBox="0 0 59 60" fill="none" xmlns="http://www.w3.org/2000/svg">
<path d="M32.9154 17.7743H32.9666M32.9666 17.7743L34.526 17.8028L35.5257 18.8491L32.9666 21.4082V17.7743Z" stroke="#007D6E" stroke-opacity="0.25" stroke-width="0.5"/>
<path d="M32.5719 26.3488H32.5207M32.5207 26.3488L30.9613 26.3203L29.9616 25.2739L32.5207 22.7148V26.3488Z" stroke="#007D6E" stroke-opacity="0.25" stroke-width="0.5"/>
<path d="M34.3865 29.9531L34.3503 29.9169M34.3503 29.9169L33.2678 28.7941L33.3008 27.3473L36.9199 27.3473L34.3503 29.9169Z" stroke="#007D6E" stroke-opacity="0.25" stroke-width="0.5"/>
<path d="M40.8684 24.0177L40.9046 24.0539M40.9046 24.0539L41.9871 25.1767L41.9541 26.6235H38.335L40.9046 24.0539Z" stroke="#007D6E" stroke-opacity="0.25" stroke-width="0.5"/>
<path d="M41.3027 13.667L41.3389 13.6308M41.3389 13.6308L42.6056 12.3641V10.627H48.541V17.069H46.9486L45.7181 18.2995L44.3428 17.069H42.6056V14.8975L41.3389 13.6308Z" stroke="#007D6E" stroke-opacity="0.25" stroke-width="0.5"/>
<path d="M37.3679 20.8234L35.8479 19.3033L33.3145 21.8367V26.5416L37.8022 26.4692L40.408 23.8635L39.1775 22.633V20.8234H37.3679Z" stroke="#007D6E" stroke-opacity="0.25" stroke-width="0.5"/>
<path d="M42.059 29.2617L42.059 27.1121H38.4762L35.1493 30.4389L38.3738 33.561H42.059L42.059 31.8208L43.3385 30.5413L42.059 29.2617Z" stroke="#007D6E" stroke-opacity="0.25" stroke-width="0.5"/>
<path d="M28.3688 17.9193L26.3204 17.9193L26.3204 21.0406L29.588 24.3082L32.4655 21.4308L32.4655 17.9193H30.8073L29.588 16.7001L28.3688 17.9193Z" stroke="#007D6E" stroke-opacity="0.25" stroke-width="0.5"/>
<path d="M35.367 8.60013L34.0641 7.29724L33.0508 8.3106V9.61349H34.3537L35.367 8.60013Z" stroke="#007D6E" stroke-opacity="0.25" stroke-width="0.5"/>
<path d="M29.7931 11.5678L31.096 12.8707L32.1094 11.8574V10.5545H30.8065L29.7931 11.5678Z" stroke="#007D6E" stroke-opacity="0.25" stroke-width="0.5"/>
<path d="M31.0959 14.4632L29.793 15.7661L30.8063 16.7794L32.1092 16.7794L32.1092 15.4765L31.0959 14.4632Z" stroke="#007D6E" stroke-opacity="0.25" stroke-width="0.5"/>
<path d="M41.7622 10.6072H39.9197V12.0403L40.841 12.9616L41.7622 12.0403V10.6072Z" stroke="#007D6E" stroke-opacity="0.25" stroke-width="0.5"/>
<path d="M41.7622 20.5961H39.9197V22.0292L40.841 22.9505L41.7622 22.0292V20.5961Z" stroke="#007D6E" stroke-opacity="0.25" stroke-width="0.5"/>
<path d="M48.6248 19.6281L48.6248 17.7855L47.1916 17.7855L46.2704 18.7068L47.1916 19.6281L48.6248 19.6281Z" stroke="#007D6E" stroke-opacity="0.25" stroke-width="0.5"/>
<path d="M51.87 25.6101L50.5671 24.3073L49.5537 25.3206L49.5537 26.6235L50.8566 26.6235L51.87 25.6101Z" stroke="#007D6E" stroke-opacity="0.25" stroke-width="0.5"/>
<path d="M38.9519 19.6281L38.9519 17.7855L37.5188 17.7855L36.5975 18.7068L37.5188 19.6281L38.9519 19.6281Z" stroke="#007D6E" stroke-opacity="0.25" stroke-width="0.5"/>
<path d="M39.9194 16.9624H41.762V15.5293L40.8407 14.608L39.9194 15.5293V16.9624Z" stroke="#007D6E" stroke-opacity="0.25" stroke-width="0.5"/>
<path d="M41.8087 17.7928H39.9268V19.6748H41.8087V17.7928Z" stroke="#007D6E" stroke-opacity="0.25" stroke-width="0.5"/>
<path d="M45.6003 29.0845L44.2695 30.4153L45.6003 31.746L46.931 30.4153L45.6003 29.0845Z" stroke="#007D6E" stroke-opacity="0.25" stroke-width="0.5"/>
<path d="M30.6921 13.6225L29.3613 12.2917L28.0306 13.6225L29.3613 14.9532L30.6921 13.6225Z" stroke="#007D6E" stroke-opacity="0.25" stroke-width="0.5"/>
<path d="M42.5852 17.7855L42.5852 19.6281L44.0183 19.6281L44.9396 18.7068L44.0183 17.7855L42.5852 17.7855Z" stroke="#007D6E" stroke-opacity="0.25" stroke-width="0.5"/>
<path d="M46.297 28.5778L47.5999 29.8807L48.6133 28.8674L48.6133 27.5645L47.3104 27.5645L46.297 28.5778Z" stroke="#007D6E" stroke-opacity="0.25" stroke-width="0.5"/>
<path d="M43.6912 29.8807L44.9941 28.5778L43.9808 27.5645L42.6779 27.5645L42.6779 28.8673L43.6912 29.8807Z" stroke="#007D6E" stroke-opacity="0.25" stroke-width="0.5"/>
<path d="M33.1231 10.4822H33.1955M33.1955 10.4822H34.6431L35.8736 9.25171L37.1765 10.5546H38.9137V12.3642L40.2166 13.6671L38.9861 14.8976V16.9243H37.1765L35.8736 18.2272L34.6431 16.9967H33.1231V14.8976L31.8926 13.6671L33.1955 12.3642V10.4822Z" stroke="#007D6E" stroke-opacity="0.25" stroke-width="0.5"/>
<path d="M42.8946 20.471H42.967M42.967 20.471H44.4146L45.6451 19.2405L46.948 20.5434H48.6852V22.3529L49.9881 23.6558L48.7576 24.8863V26.9131H46.948L45.6451 28.2159L44.4146 26.9854H42.8946V24.8863L41.6641 23.6558L42.967 22.3529V20.471Z" stroke="#007D6E" stroke-opacity="0.25" stroke-width="0.5"/>
<path d="M32.9154 43.0453H32.9666M32.9666 43.0453L34.526 43.0168L35.5257 41.9705L32.9666 39.4113V43.0453Z" stroke="#007D6E" stroke-opacity="0.25" stroke-width="0.5"/>
<path d="M32.5719 34.426H32.5207M32.5207 34.426L30.9613 34.4545L29.9616 35.5009L32.5207 38.06V34.426Z" stroke="#007D6E" stroke-opacity="0.25" stroke-width="0.5"/>
<path d="M34.3865 30.8217L34.3503 30.8578M34.3503 30.8578L33.2678 31.9807L33.3008 33.4274L36.9199 33.4274L34.3503 30.8578Z" stroke="#007D6E" stroke-opacity="0.25" stroke-width="0.5"/>
<path d="M40.8684 36.7571L40.9046 36.7209M40.9046 36.7209L41.9871 35.5981L41.9541 34.1513H38.335L40.9046 36.7209Z" stroke="#007D6E" stroke-opacity="0.25" stroke-width="0.5"/>
<path d="M41.3027 47.1079L41.3389 47.1441M41.3389 47.1441L42.6056 48.4108V50.1479H48.541V43.7059H46.9486L45.7181 42.4754L44.3428 43.7059H42.6056V45.8774L41.3389 47.1441Z" stroke="#007D6E" stroke-opacity="0.25" stroke-width="0.5"/>
<path d="M37.3933 40.1592L35.8732 41.6792L33.3398 39.1458V34.4409L37.8276 34.5133L40.4334 37.1191L39.2029 38.3496V40.1592H37.3933Z" stroke="#007D6E" stroke-opacity="0.25" stroke-width="0.5"/>
<path d="M28.4061 42.8801L26.3698 42.9031L26.364 39.7999L29.6063 36.5146L32.4722 39.343L32.4787 42.8341L30.8303 42.8527L29.6205 44.0785L28.4061 42.8801Z" stroke="#007D6E" stroke-opacity="0.25" stroke-width="0.5"/>
<path d="M35.367 52.1746L34.0641 53.4775L33.0508 52.4642V51.1613H34.3537L35.367 52.1746Z" stroke="#007D6E" stroke-opacity="0.25" stroke-width="0.5"/>
<path d="M29.7931 49.2069L31.096 47.9041L32.1094 48.9174V50.2203H30.8065L29.7931 49.2069Z" stroke="#007D6E" stroke-opacity="0.25" stroke-width="0.5"/>
<path d="M31.0959 46.3116L29.793 45.0087L30.8063 43.9954L32.1092 43.9954L32.1092 45.2983L31.0959 46.3116Z" stroke="#007D6E" stroke-opacity="0.25" stroke-width="0.5"/>
<path d="M41.7622 50.1676H39.9197V48.7345L40.841 47.8132L41.7622 48.7345V50.1676Z" stroke="#007D6E" stroke-opacity="0.25" stroke-width="0.5"/>
<path d="M41.7622 40.1788H39.9197V38.7457L40.841 37.8244L41.7622 38.7457V40.1788Z" stroke="#007D6E" stroke-opacity="0.25" stroke-width="0.5"/>
<path d="M48.6248 41.1467L48.6248 42.9893L47.1916 42.9893L46.2704 42.068L47.1916 41.1467L48.6248 41.1467Z" stroke="#007D6E" stroke-opacity="0.25" stroke-width="0.5"/>
<path d="M51.87 35.1648L50.5671 36.4677L49.5537 35.4543L49.5537 34.1514L50.8566 34.1514L51.87 35.1648Z" stroke="#007D6E" stroke-opacity="0.25" stroke-width="0.5"/>
<path d="M38.9519 41.1467L38.9519 42.9893L37.5188 42.9893L36.5975 42.068L37.5188 41.1467L38.9519 41.1467Z" stroke="#007D6E" stroke-opacity="0.25" stroke-width="0.5"/>
<path d="M39.9194 43.8125H41.762V45.2456L40.8407 46.1669L39.9194 45.2456V43.8125Z" stroke="#007D6E" stroke-opacity="0.25" stroke-width="0.5"/>
<path d="M41.8087 42.9821H39.9268V41.1001H41.8087V42.9821Z" stroke="#007D6E" stroke-opacity="0.25" stroke-width="0.5"/>
<path d="M30.6921 47.1524L29.3613 48.4832L28.0306 47.1524L29.3613 45.8217L30.6921 47.1524Z" stroke="#007D6E" stroke-opacity="0.25" stroke-width="0.5"/>
<path d="M42.5852 42.9893L42.5852 41.1467L44.0183 41.1467L44.9396 42.068L44.0183 42.9893L42.5852 42.9893Z" stroke="#007D6E" stroke-opacity="0.25" stroke-width="0.5"/>
<path d="M46.297 32.1971L47.5999 30.8942L48.6133 31.9075L48.6133 33.2104L47.3104 33.2104L46.297 32.1971Z" stroke="#007D6E" stroke-opacity="0.25" stroke-width="0.5"/>
<path d="M43.6912 30.8941L44.9941 32.197L43.9808 33.2103L42.6779 33.2103L42.6779 31.9074L43.6912 30.8941Z" stroke="#007D6E" stroke-opacity="0.25" stroke-width="0.5"/>
<path d="M33.1231 50.2927H33.1955M33.1955 50.2927H34.6431L35.8736 51.5232L37.1765 50.2203H38.9137V48.4107L40.2166 47.1078L38.9861 45.8773V43.8506H37.1765L35.8736 42.5477L34.6431 43.7782H33.1231V45.8773L31.8926 47.1078L33.1955 48.4107V50.2927Z" stroke="#007D6E" stroke-opacity="0.25" stroke-width="0.5"/>
<path d="M42.8946 40.3039H42.967M42.967 40.3039H44.4146L45.6451 41.5344L46.948 40.2315H48.6852V38.422L49.9881 37.1191L48.7576 35.8886V33.8618H46.948L45.6451 32.559L44.4146 33.7895H42.8946V35.8886L41.6641 37.1191L42.967 38.422V40.3039Z" stroke="#007D6E" stroke-opacity="0.25" stroke-width="0.5"/>
<path d="M29.3594 1L37.611 9.68594H49.4818V22.0634L57.8058 30.3874L49.2647 38.9286V50.9441H37.4663L29.3594 59.051" stroke="#007D6E" stroke-opacity="0.25" stroke-width="0.5"/>
<path d="M25.8942 17.7743H25.843M25.843 17.7743L24.2836 17.8028L23.2839 18.8491L25.843 21.4082V17.7743Z" stroke="#007D6E" stroke-opacity="0.25" stroke-width="0.5"/>
<path d="M26.2338 26.3488H26.2849M26.2849 26.3488L27.8444 26.3203L28.8441 25.2739L26.2849 22.7148V26.3488Z" stroke="#007D6E" stroke-opacity="0.25" stroke-width="0.5"/>
<path d="M24.4191 29.9531L24.4553 29.9169M24.4553 29.9169L25.5379 28.7941L25.5049 27.3473L21.8857 27.3473L24.4553 29.9169Z" stroke="#007D6E" stroke-opacity="0.25" stroke-width="0.5"/>
<path d="M17.9383 24.0177L17.9021 24.0539M17.9021 24.0539L16.8195 25.1767L16.8525 26.6235H20.4717L17.9021 24.0539Z" stroke="#007D6E" stroke-opacity="0.25" stroke-width="0.5"/>
<path d="M17.5029 13.667L17.4667 13.6308M17.4667 13.6308L16.2 12.3641V10.627H10.2646V17.069H11.8571L13.0876 18.2995L14.4629 17.069H16.2V14.8975L17.4667 13.6308Z" stroke="#007D6E" stroke-opacity="0.25" stroke-width="0.5"/>
<path d="M21.5315 20.8234L23.0516 19.3033L25.585 21.8367V26.5416L21.0972 26.4692L18.4914 23.8635L19.722 22.633V20.8234H21.5315Z" stroke="#007D6E" stroke-opacity="0.25" stroke-width="0.5"/>
<path d="M16.7467 29.2617L16.7467 27.1121H20.3295L23.6563 30.4389L20.4318 33.561H16.7467L16.7467 31.8208L15.4671 30.5413L16.7467 29.2617Z" stroke="#007D6E" stroke-opacity="0.25" stroke-width="0.5"/>
<path d="M23.4396 8.60013L24.7425 7.29724L25.7559 8.3106V9.61349H24.453L23.4396 8.60013Z" stroke="#007D6E" stroke-opacity="0.25" stroke-width="0.5"/>
<path d="M29.0125 11.5678L27.7096 12.8707L26.6963 11.8574V10.5545H27.9992L29.0125 11.5678Z" stroke="#007D6E" stroke-opacity="0.25" stroke-width="0.5"/>
<path d="M27.7098 14.4632L29.0127 15.7661L27.9993 16.7794L26.6964 16.7794L26.6964 15.4765L27.7098 14.4632Z" stroke="#007D6E" stroke-opacity="0.25" stroke-width="0.5"/>
<path d="M17.0434 10.6072H18.886V12.0403L17.9647 12.9616L17.0434 12.0403V10.6072Z" stroke="#007D6E" stroke-opacity="0.25" stroke-width="0.5"/>
<path d="M17.0434 20.5961H18.886V22.0292L17.9647 22.9505L17.0434 22.0292V20.5961Z" stroke="#007D6E" stroke-opacity="0.25" stroke-width="0.5"/>
<path d="M10.1809 19.6281L10.1809 17.7855L11.614 17.7855L12.5353 18.7068L11.614 19.6281L10.1809 19.6281Z" stroke="#007D6E" stroke-opacity="0.25" stroke-width="0.5"/>
<path d="M6.9357 25.6101L8.23859 24.3073L9.25195 25.3206L9.25195 26.6235L7.94906 26.6235L6.9357 25.6101Z" stroke="#007D6E" stroke-opacity="0.25" stroke-width="0.5"/>
<path d="M19.8538 19.6281L19.8538 17.7855L21.2869 17.7855L22.2081 18.7068L21.2869 19.6281L19.8538 19.6281Z" stroke="#007D6E" stroke-opacity="0.25" stroke-width="0.5"/>
<path d="M18.8863 16.9624H17.0437V15.5293L17.965 14.608L18.8863 15.5293V16.9624Z" stroke="#007D6E" stroke-opacity="0.25" stroke-width="0.5"/>
<path d="M16.997 17.7928H18.8789V19.6748H16.997V17.7928Z" stroke="#007D6E" stroke-opacity="0.25" stroke-width="0.5"/>
<path d="M13.2044 29.0845L14.5352 30.4153L13.2044 31.746L11.8737 30.4153L13.2044 29.0845Z" stroke="#007D6E" stroke-opacity="0.25" stroke-width="0.5"/>
<path d="M16.2214 17.7855L16.2214 19.6281L14.7883 19.6281L13.867 18.7068L14.7883 17.7855L16.2214 17.7855Z" stroke="#007D6E" stroke-opacity="0.25" stroke-width="0.5"/>
<path d="M12.5096 28.5778L11.2067 29.8807L10.1934 28.8674L10.1934 27.5645L11.4963 27.5645L12.5096 28.5778Z" stroke="#007D6E" stroke-opacity="0.25" stroke-width="0.5"/>
<path d="M15.1154 29.8807L13.8125 28.5778L14.8259 27.5645L16.1288 27.5645L16.1288 28.8673L15.1154 29.8807Z" stroke="#007D6E" stroke-opacity="0.25" stroke-width="0.5"/>
<path d="M25.6836 10.4822H25.6112M25.6112 10.4822H24.1635L22.933 9.25171L21.6301 10.5546H19.8929V12.3642L18.59 13.6671L19.8205 14.8976V16.9243H21.6301L22.933 18.2272L24.1635 16.9967H25.6836V14.8976L26.9141 13.6671L25.6112 12.3642V10.4822Z" stroke="#007D6E" stroke-opacity="0.25" stroke-width="0.5"/>
<path d="M15.9111 20.471H15.8387M15.8387 20.471H14.3911L13.1605 19.2405L11.8577 20.5434H10.1205V22.3529L8.81758 23.6558L10.0481 24.8863V26.9131H11.8577L13.1605 28.2159L14.3911 26.9854H15.9111V24.8863L17.1416 23.6558L15.8387 22.3529V20.471Z" stroke="#007D6E" stroke-opacity="0.25" stroke-width="0.5"/>
<path d="M7.85802 27.4883L6.69795 26.3282L2.57324 30.453L6.69795 34.5777L7.85802 33.4176H9.59813V31.613L10.7582 30.453L9.59813 29.2929V27.4883H7.85802Z" stroke="#007D6E" stroke-opacity="0.25" stroke-width="0.5"/>
<path d="M26.4833 52.7522L25.3232 53.9123L29.4479 58.037L33.5727 53.9123L32.4126 52.7522L32.4126 51.0121L30.608 51.0121L29.4479 49.852L28.2879 51.0121L26.4833 51.0121L26.4833 52.7522Z" stroke="#007D6E" stroke-opacity="0.25" stroke-width="0.5"/>
<path d="M51.0385 33.3532L52.1985 34.5133L56.3232 30.3886L52.1985 26.2639L51.0385 27.424L49.2984 27.424L49.2983 29.2285L48.1383 30.3886L49.2983 31.5487L49.2983 33.3532L51.0385 33.3532Z" stroke="#007D6E" stroke-opacity="0.25" stroke-width="0.5"/>
<path d="M32.2843 8.08935L33.4443 6.92927L29.3196 2.80457L25.1949 6.92927L26.355 8.08935L26.355 9.82946L28.1596 9.82946L29.3196 10.9895L30.4797 9.82946L32.2843 9.82946L32.2843 8.08935Z" stroke="#007D6E" stroke-opacity="0.25" stroke-width="0.5"/>
<path d="M26.0231 43.0453H25.9719M25.9719 43.0453L24.4125 43.0168L23.4128 41.9705L25.9719 39.4113V43.0453Z" stroke="#007D6E" stroke-opacity="0.25" stroke-width="0.5"/>
<path d="M26.2338 34.426H26.2849M26.2849 34.426L27.8444 34.4545L28.8441 35.5009L26.2849 38.06V34.426Z" stroke="#007D6E" stroke-opacity="0.25" stroke-width="0.5"/>
<path d="M24.4191 30.8217L24.4553 30.8578M24.4553 30.8578L25.5379 31.9807L25.5049 33.4274L21.8857 33.4274L24.4553 30.8578Z" stroke="#007D6E" stroke-opacity="0.25" stroke-width="0.5"/>
<path d="M17.9383 36.7571L17.9021 36.7209M17.9021 36.7209L16.8195 35.5981L16.8525 34.1513H20.4717L17.9021 36.7209Z" stroke="#007D6E" stroke-opacity="0.25" stroke-width="0.5"/>
<path d="M17.5029 47.1079L17.4667 47.1441M17.4667 47.1441L16.2 48.4108V50.1479H10.2646V43.7059H11.8571L13.0876 42.4754L14.4629 43.7059H16.2V45.8774L17.4667 47.1441Z" stroke="#007D6E" stroke-opacity="0.25" stroke-width="0.5"/>
<path d="M21.4124 40.1592L22.9324 41.6792L25.4658 39.1458V34.4409L20.9781 34.5133L18.3723 37.1191L19.6028 38.3496V40.1592H21.4124Z" stroke="#007D6E" stroke-opacity="0.25" stroke-width="0.5"/>
<path d="M23.4396 52.1746L24.7425 53.4775L25.7559 52.4642V51.1613H24.453L23.4396 52.1746Z" stroke="#007D6E" stroke-opacity="0.25" stroke-width="0.5"/>
<path d="M29.0125 49.2069L27.7096 47.9041L26.6963 48.9174V50.2203H27.9992L29.0125 49.2069Z" stroke="#007D6E" stroke-opacity="0.25" stroke-width="0.5"/>
<path d="M27.7098 46.3116L29.0127 45.0087L27.9993 43.9954L26.6964 43.9954L26.6964 45.2983L27.7098 46.3116Z" stroke="#007D6E" stroke-opacity="0.25" stroke-width="0.5"/>
<path d="M17.0434 50.1676H18.886V48.7345L17.9647 47.8132L17.0434 48.7345V50.1676Z" stroke="#007D6E" stroke-opacity="0.25" stroke-width="0.5"/>
<path d="M17.0434 40.1788H18.886V38.7457L17.9647 37.8244L17.0434 38.7457V40.1788Z" stroke="#007D6E" stroke-opacity="0.25" stroke-width="0.5"/>
<path d="M10.1809 41.1467L10.1809 42.9893L11.614 42.9893L12.5353 42.068L11.614 41.1467L10.1809 41.1467Z" stroke="#007D6E" stroke-opacity="0.25" stroke-width="0.5"/>
<path d="M6.9357 35.1648L8.23859 36.4677L9.25195 35.4543L9.25195 34.1514L7.94906 34.1514L6.9357 35.1648Z" stroke="#007D6E" stroke-opacity="0.25" stroke-width="0.5"/>
<path d="M19.8538 41.1467L19.8538 42.9893L21.2869 42.9893L22.2081 42.068L21.2869 41.1467L19.8538 41.1467Z" stroke="#007D6E" stroke-opacity="0.25" stroke-width="0.5"/>
<path d="M18.8863 43.8125H17.0437V45.2456L17.965 46.1669L18.8863 45.2456V43.8125Z" stroke="#007D6E" stroke-opacity="0.25" stroke-width="0.5"/>
<path d="M16.997 42.9821H18.8789V41.1001H16.997V42.9821Z" stroke="#007D6E" stroke-opacity="0.25" stroke-width="0.5"/>
<path d="M16.2214 42.9893L16.2214 41.1467L14.7883 41.1467L13.867 42.068L14.7883 42.9893L16.2214 42.9893Z" stroke="#007D6E" stroke-opacity="0.25" stroke-width="0.5"/>
<path d="M12.5096 32.1971L11.2067 30.8942L10.1934 31.9075L10.1934 33.2104L11.4963 33.2104L12.5096 32.1971Z" stroke="#007D6E" stroke-opacity="0.25" stroke-width="0.5"/>
<path d="M15.1154 30.8941L13.8125 32.197L14.8259 33.2103L16.1288 33.2103L16.1288 31.9074L15.1154 30.8941Z" stroke="#007D6E" stroke-opacity="0.25" stroke-width="0.5"/>
<path d="M25.6836 50.2927H25.6112M25.6112 50.2927H24.1635L22.933 51.5232L21.6301 50.2203H19.8929V48.4107L18.59 47.1078L19.8205 45.8773V43.8506H21.6301L22.933 42.5477L24.1635 43.7782H25.6836V45.8773L26.9141 47.1078L25.6112 48.4107V50.2927Z" stroke="#007D6E" stroke-opacity="0.25" stroke-width="0.5"/>
<path d="M15.9111 40.3039H15.8387M15.8387 40.3039H14.3911L13.1605 41.5344L11.8577 40.2315H10.1205V38.422L8.81758 37.1191L10.0481 35.8886V33.8618H11.8577L13.1605 32.559L14.3911 33.7895H15.9111V35.8886L17.1416 37.1191L15.8387 38.422V40.3039Z" stroke="#007D6E" stroke-opacity="0.25" stroke-width="0.5"/>
<path d="M29.4463 1L21.1946 9.68594H9.32386V22.0634L0.999837 30.3874L9.54101 38.9286V50.9441H21.3394L29.4463 59.051" stroke="#007D6E" stroke-opacity="0.25" stroke-width="0.5"/>
<path d="M32.2837 27.2951H30.5436L29.2546 26.0061L27.9656 27.2951H26.2255V29.1641L25.001 30.3886L26.2255 31.6131V33.2888H27.9656L29.2546 34.5778L30.5436 33.2888H32.2837V31.6131L33.5082 30.3886L32.2837 29.1641V27.2951Z" stroke="#007D6E" stroke-opacity="0.25" stroke-width="0.5"/>
</svg>
